<svg width="75" height="60" viewBox="0 0 75 60" fill="none" xmlns="http://www.w3.org/2000/svg">
<rect width="75" height="60" fill="white"/>
<rect x="26" y="18" width="24" height="24" rx="6" fill="#12D6E3"/>
<path d="M37 31H32C31.7167 31 31.4792 30.9042 31.2875 30.7125C31.0958 30.5208 31 30.2833 31 30C31 29.7167 31.0958 29.4792 31.2875 29.2875C31.4792 29.0958 31.7167 29 32 29H37V24C37 23.7167 37.0958 23.4792 37.2875 23.2875C37.4792 23.0958 37.7167 23 38 23C38.2833 23 38.5208 23.0958 38.7125 23.2875C38.9042 23.4792 39 23.7167 39 24V29H44C44.2833 29 44.5208 29.0958 44.7125 29.2875C44.9042 29.4792 45 29.7167 45 30C45 30.2833 44.9042 30.5208 44.7125 30.7125C44.5208 30.9042 44.2833 31 44 31H39V36C39 36.2833 38.9042 36.5208 38.7125 36.7125C38.5208 36.9042 38.2833 37 38 37C37.7167 37 37.4792 36.9042 37.2875 36.7125C37.0958 36.5208 37 36.2833 37 36V31Z" fill="white"/>
</svg>
