<svg width="16" height="16" viewBox="0 0 16 16" fill="none" xmlns="http://www.w3.org/2000/svg">
<path d="M3.82499 8.99999L8.72499 13.9C8.92499 14.1 9.02082 14.3333 9.01249 14.6C9.00416 14.8667 8.89999 15.1 8.69999 15.3C8.49999 15.4833 8.26665 15.5792 7.99999 15.5875C7.73332 15.5958 7.49999 15.5 7.29999 15.3L0.699988 8.69999C0.599988 8.59999 0.529154 8.49165 0.487488 8.37499C0.445821 8.25832 0.424988 8.13332 0.424988 7.99999C0.424988 7.86665 0.445821 7.74165 0.487488 7.62499C0.529154 7.50832 0.599988 7.39999 0.699988 7.29999L7.29999 0.699988C7.48332 0.516654 7.71249 0.424988 7.98749 0.424988C8.26249 0.424988 8.49999 0.516654 8.69999 0.699988C8.89999 0.899988 8.99999 1.13749 8.99999 1.41249C8.99999 1.68749 8.89999 1.92499 8.69999 2.12499L3.82499 6.99999H15C15.2833 6.99999 15.5208 7.09582 15.7125 7.28749C15.9042 7.47915 16 7.71665 16 7.99999C16 8.28332 15.9042 8.52082 15.7125 8.71249C15.5208 8.90415 15.2833 8.99999 15 8.99999H3.82499Z" fill="#131417"/>
</svg>
