<svg width="160" height="188" viewBox="0 0 160 188" fill="none" xmlns="http://www.w3.org/2000/svg">
<g clip-path="url(#clip0_1246_572)">
<path d="M24.3358 179.456C24.2638 181.04 24.1438 182.36 23.9758 183.944C23.8078 185.744 22.7998 187.16 20.8078 187.16C18.7678 187.16 17.7838 185.744 17.6158 183.944C17.1357 179.384 17.1357 174.368 17.6158 169.832C17.7838 168.056 18.7678 166.64 20.8078 166.64C21.9598 166.64 22.7758 167.096 23.3038 167.816C24.6958 169.808 26.0638 172.784 27.1918 175.28C27.3598 175.592 27.5998 175.592 27.7678 175.28C28.8958 172.784 30.2398 169.808 31.6558 167.816C32.1598 167.096 32.9998 166.64 34.1518 166.64C36.1918 166.64 37.1518 168.056 37.3438 169.832C37.7998 174.368 37.7998 179.384 37.3438 183.944C37.1518 185.744 36.1918 187.16 34.1518 187.16C32.1598 187.16 31.1518 185.744 30.9838 183.944C30.8158 182.36 30.6958 181.04 30.6238 179.456C31.1518 178.304 31.5358 177.44 31.8238 176.36C31.9678 175.808 31.3918 175.688 31.2718 176.144C30.7198 177.872 29.8078 179.792 28.9678 181.328C28.2958 182.552 26.6638 182.552 25.9918 181.328C25.1518 179.792 24.2398 177.872 23.6878 176.144C23.5678 175.688 22.9918 175.808 23.1358 176.36C23.4238 177.44 23.8078 178.304 24.3358 179.456ZM44.8254 180.056C41.9214 178.208 39.8814 173.816 39.3294 170.096C38.9694 167.504 40.9134 166.64 42.9294 166.64C45.5454 166.64 46.7934 167.816 46.9854 170.48C47.0814 171.872 47.3934 174.128 47.9694 175.952C48.1614 176.552 48.8334 176.288 48.7134 175.808C48.3774 174.416 48.0654 171.992 47.9454 170.744C47.6094 167.456 49.6494 166.64 52.5534 166.64C55.9614 166.64 57.4254 168.248 56.8254 170.96C55.9614 174.872 54.0174 178.64 51.8094 180.056C51.7374 180.944 51.6894 183.104 51.5934 183.944C51.4014 185.744 50.3214 187.16 48.3294 187.16C46.2654 187.16 45.2094 185.72 45.0174 183.944C44.8974 182.6 44.8974 181.4 44.8254 180.056ZM65.5366 180.152C65.5126 181.448 65.3926 182.696 65.2726 183.944C65.1046 185.744 64.0966 187.16 62.1046 187.16C60.0646 187.16 59.0806 185.744 58.9126 183.944C58.4326 179.384 58.4326 174.368 58.9126 169.832C59.0806 168.056 60.0646 166.64 62.1046 166.64C64.0966 166.64 65.1046 168.056 65.2726 169.832C65.4166 171.392 65.4646 172.784 65.5606 174.416C66.2326 172.472 67.2406 170.576 67.9846 169.208C68.9686 167.408 70.6246 166.208 72.9046 167.168C74.8246 167.984 75.4966 169.52 74.7766 171.368C73.7926 173.912 71.8966 176.624 70.1206 178.04C69.8086 178.256 70.0966 178.736 70.4566 178.472C70.8166 178.184 71.1526 177.896 71.4646 177.56C72.9046 179.096 74.0086 181.232 74.6086 182.912C75.1366 184.52 74.3926 186.104 72.5206 186.872C70.5526 187.64 68.7766 186.848 67.6726 185C67.0726 183.968 66.1606 181.88 65.5366 180.152ZM83.4429 180.152C83.4189 181.448 83.2989 182.696 83.1789 183.944C83.0109 185.744 82.0029 187.16 80.0109 187.16C77.9709 187.16 76.9869 185.744 76.8189 183.944C76.3389 179.384 76.3389 174.368 76.8189 169.832C76.9869 168.056 77.9709 166.64 80.0109 166.64C82.0029 166.64 83.0109 168.056 83.1789 169.832C83.3229 171.392 83.3709 172.784 83.4669 174.416C84.1389 172.472 85.1469 170.576 85.8909 169.208C86.8749 167.408 88.5309 166.208 90.8109 167.168C92.7309 167.984 93.4029 169.52 92.6829 171.368C91.6989 173.912 89.8029 176.624 88.0269 178.04C87.7149 178.256 88.0029 178.736 88.3629 178.472C88.7229 178.184 89.0589 177.896 89.3709 177.56C90.8109 179.096 91.9149 181.232 92.5149 182.912C93.0429 184.52 92.2989 186.104 90.4269 186.872C88.4589 187.64 86.6829 186.848 85.5789 185C84.9789 183.968 84.0669 181.88 83.4429 180.152ZM102.957 187.352C96.1651 187.352 94.3651 182.84 94.3651 177.104C94.3651 174.632 94.4131 171.992 94.5091 169.616C94.6291 167.792 95.9731 166.64 97.8211 166.64C99.6691 166.64 101.037 167.792 101.133 169.616C101.253 171.992 101.301 174.632 101.301 177.104C101.301 178.52 101.517 179.624 102.957 179.624C104.397 179.624 104.613 178.52 104.613 177.104C104.613 174.632 104.661 171.992 104.781 169.616C104.853 167.792 106.245 166.64 108.069 166.64C109.917 166.64 111.333 167.792 111.405 169.616C111.525 171.992 111.573 174.632 111.573 177.104C111.573 182.84 109.749 187.352 102.957 187.352ZM120.476 179.456C120.404 181.04 120.284 182.36 120.116 183.944C119.948 185.744 118.94 187.16 116.948 187.16C114.908 187.16 113.924 185.744 113.756 183.944C113.276 179.384 113.276 174.368 113.756 169.832C113.924 168.056 114.908 166.64 116.948 166.64C118.1 166.64 118.916 167.096 119.444 167.816C120.836 169.808 122.204 172.784 123.332 175.28C123.5 175.592 123.74 175.592 123.908 175.28C125.036 172.784 126.38 169.808 127.796 167.816C128.3 167.096 129.14 166.64 130.292 166.64C132.332 166.64 133.292 168.056 133.484 169.832C133.94 174.368 133.94 179.384 133.484 183.944C133.292 185.744 132.332 187.16 130.292 187.16C128.3 187.16 127.292 185.744 127.124 183.944C126.956 182.36 126.836 181.04 126.764 179.456C127.292 178.304 127.676 177.44 127.964 176.36C128.108 175.808 127.532 175.688 127.412 176.144C126.86 177.872 125.948 179.792 125.108 181.328C124.436 182.552 122.804 182.552 122.132 181.328C121.292 179.792 120.38 177.872 119.828 176.144C119.708 175.688 119.132 175.808 119.276 176.36C119.564 177.44 119.948 178.304 120.476 179.456ZM136.022 183.944C135.542 179.384 135.542 174.368 136.022 169.832C136.19 168.056 137.174 166.64 139.214 166.64C141.206 166.64 142.214 168.056 142.382 169.832C142.862 174.368 142.862 179.384 142.382 183.944C142.214 185.744 141.206 187.16 139.214 187.16C137.174 187.16 136.19 185.744 136.022 183.944Z" fill="#12D6E3"/>
<mask id="mask0_1246_572" style="mask-type:luminance" maskUnits="userSpaceOnUse" x="0" y="0" width="160" height="160">
<path d="M160 0H0V160H160V0Z" fill="white"/>
</mask>
<g mask="url(#mask0_1246_572)">
<path d="M103.494 24C97.6807 24 92.2899 25.9302 87.9081 29.1933C83.1834 32.7113 76.8166 32.7113 72.0934 29.1933C67.7116 25.9302 62.3208 24 56.5079 24C41.9283 24 30 36.1449 30 50.989V94.7102C30 108.069 40.7352 119 53.8566 119H106.143C119.265 119 130 108.069 130 94.7102V50.989C130.002 36.1449 118.073 24 103.494 24Z" fill="#25F2FF"/>
<path d="M67.5 67.75C70.2614 67.75 72.5 65.5114 72.5 62.75C72.5 59.9885 70.2614 57.75 67.5 57.75C64.7386 57.75 62.5 59.9885 62.5 62.75C62.5 65.5114 64.7386 67.75 67.5 67.75Z" fill="#191D22"/>
<path d="M92.9166 67.75C95.6781 67.75 97.9166 65.5114 97.9166 62.75C97.9166 59.9885 95.6781 57.75 92.9166 57.75C90.1552 57.75 87.9166 59.9885 87.9166 62.75C87.9166 65.5114 90.1552 67.75 92.9166 67.75Z" fill="#191D22"/>
<path d="M102.5 83.9999C107.102 83.9999 110.833 80.269 110.833 75.6666C110.833 71.0642 107.102 67.3333 102.5 67.3333C97.8976 67.3333 94.1666 71.0642 94.1666 75.6666C94.1666 80.269 97.8976 83.9999 102.5 83.9999Z" fill="#FFF493"/>
<path d="M57.5 83.9999C62.1023 83.9999 65.8333 80.269 65.8333 75.6666C65.8333 71.0642 62.1023 67.3333 57.5 67.3333C52.8976 67.3333 49.1666 71.0642 49.1666 75.6666C49.1666 80.269 52.8976 83.9999 57.5 83.9999Z" fill="#FFF493"/>
<path d="M101.667 76.7075C98.8263 85.8744 90.1997 92.5408 80 92.5408C69.8004 92.5408 61.1753 85.8759 58.3334 76.709" stroke="#191D22" stroke-width="6.66667" stroke-miterlimit="10" stroke-linecap="round"/>
<path fill-rule="evenodd" clip-rule="evenodd" d="M60.7067 111.083C64.7788 111.083 68.0798 114.384 68.0798 118.456V124.412C71.7153 124.866 74.5312 127.97 74.5312 131.728C74.5312 134.17 72.5493 136.152 70.1073 136.152H61.2596C61.1985 136.152 61.1381 136.149 61.0785 136.143C60.9554 136.149 60.8314 136.152 60.7067 136.152C56.6347 136.152 53.3336 132.851 53.3336 128.779V118.456C53.3336 114.384 56.6347 111.083 60.7067 111.083Z" fill="#25F2FF"/>
<path d="M100.631 118.456C100.631 114.384 97.3303 111.083 93.2582 111.083C89.1862 111.083 85.8851 114.384 85.8851 118.456V128.779C85.8851 132.851 89.1862 136.152 93.2582 136.152C97.3303 136.152 100.631 132.851 100.631 128.779V118.456Z" fill="#25F2FF"/>
<path d="M93.8111 124.355H99.7095C103.78 124.355 107.083 127.658 107.083 131.728C107.083 134.17 105.101 136.152 102.659 136.152H93.8111C92.8349 136.152 92.0415 135.359 92.0415 134.382V126.124C92.0415 125.148 92.8349 124.355 93.8111 124.355Z" fill="#25F2FF"/>
<path d="M103.494 24C97.6807 24 92.2899 25.9302 87.9081 29.1933C83.1834 32.7113 76.8166 32.7113 72.0934 29.1933C67.7116 25.9302 62.3208 24 56.5079 24C41.9283 24 30 36.1449 30 50.989V94.7102C30 108.069 40.7352 119 53.8566 119H106.143C119.265 119 130 108.069 130 94.7102V50.989C130.002 36.1449 118.073 24 103.494 24Z" fill="#25F2FF"/>
<path d="M67.5 67.75C70.2614 67.75 72.5 65.5114 72.5 62.75C72.5 59.9885 70.2614 57.75 67.5 57.75C64.7386 57.75 62.5 59.9885 62.5 62.75C62.5 65.5114 64.7386 67.75 67.5 67.75Z" fill="#191D22"/>
<path d="M92.9166 67.75C95.6781 67.75 97.9166 65.5114 97.9166 62.75C97.9166 59.9885 95.6781 57.75 92.9166 57.75C90.1552 57.75 87.9166 59.9885 87.9166 62.75C87.9166 65.5114 90.1552 67.75 92.9166 67.75Z" fill="#191D22"/>
<path d="M102.5 83.9999C107.102 83.9999 110.833 80.269 110.833 75.6666C110.833 71.0642 107.102 67.3333 102.5 67.3333C97.8976 67.3333 94.1666 71.0642 94.1666 75.6666C94.1666 80.269 97.8976 83.9999 102.5 83.9999Z" fill="#FFF493"/>
<path d="M57.5 83.9999C62.1023 83.9999 65.8333 80.269 65.8333 75.6666C65.8333 71.0642 62.1023 67.3333 57.5 67.3333C52.8976 67.3333 49.1666 71.0642 49.1666 75.6666C49.1666 80.269 52.8976 83.9999 57.5 83.9999Z" fill="#FFF493"/>
<path d="M101.667 76.7075C98.8263 85.8744 90.1997 92.5408 80 92.5408C69.8004 92.5408 61.1753 85.8759 58.3334 76.709" stroke="#191D22" stroke-width="6.66667" stroke-miterlimit="10" stroke-linecap="round"/>
<path fill-rule="evenodd" clip-rule="evenodd" d="M60.7067 111.083C64.7788 111.083 68.0798 114.384 68.0798 118.456V124.412C71.7153 124.866 74.5312 127.97 74.5312 131.728C74.5312 134.17 72.5493 136.152 70.1073 136.152H61.2596C61.1985 136.152 61.1381 136.149 61.0785 136.143C60.9554 136.149 60.8314 136.152 60.7067 136.152C56.6347 136.152 53.3336 132.851 53.3336 128.779V118.456C53.3336 114.384 56.6347 111.083 60.7067 111.083Z" fill="#25F2FF"/>
<path d="M100.631 118.456C100.631 114.384 97.3303 111.083 93.2582 111.083C89.1862 111.083 85.8851 114.384 85.8851 118.456V128.779C85.8851 132.851 89.1862 136.152 93.2582 136.152C97.3303 136.152 100.631 132.851 100.631 128.779V118.456Z" fill="#25F2FF"/>
<path d="M93.8111 124.355H99.7095C103.78 124.355 107.083 127.658 107.083 131.728C107.083 134.17 105.101 136.152 102.659 136.152H93.8111C92.8349 136.152 92.0415 135.359 92.0415 134.382V126.124C92.0415 125.148 92.8349 124.355 93.8111 124.355Z" fill="#25F2FF"/>
</g>
</g>
<defs>
<clipPath id="clip0_1246_572">
<rect width="160" height="188" fill="white"/>
</clipPath>
</defs>
</svg>
