<svg width="75" height="60" viewBox="0 0 75 60" fill="none" xmlns="http://www.w3.org/2000/svg">
<rect width="75" height="60" fill="white"/>
<path d="M47 39L42.66 34.66M45 29C45 30.5823 44.5308 32.129 43.6518 33.4446C42.7727 34.7602 41.5233 35.7855 40.0615 36.391C38.5997 36.9965 36.9911 37.155 35.4393 36.8463C33.8874 36.5376 32.462 35.7757 31.3431 34.6569C30.2243 33.538 29.4624 32.1126 29.1537 30.5607C28.845 29.0089 29.0035 27.4003 29.609 25.9385C30.2145 24.4767 31.2398 23.2273 32.5554 22.3482C33.871 21.4692 35.4178 21 37 21C39.1217 21 41.1566 21.8429 42.6569 23.3431C44.1571 24.8434 45 26.8783 45 29Z" stroke="#DCDFE7" stroke-width="2" stroke-linecap="round" stroke-linejoin="round"/>
</svg>
