<svg width="24" height="24" viewBox="0 0 24 24" fill="none" xmlns="http://www.w3.org/2000/svg">
<circle cx="12" cy="12" r="12" fill="#7C8394"/>
<path d="M7.52851 15.5286C7.26816 15.7889 7.26816 16.2111 7.52851 16.4714C7.78886 16.7317 8.21097 16.7317 8.47132 16.4714L7.52851 15.5286ZM16.4713 8.47142C16.7316 8.21106 16.7316 7.78895 16.4713 7.52861C16.211 7.26826 15.7888 7.26826 15.5285 7.52861L16.4713 8.47142ZM8.47132 7.52861C8.21097 7.26826 7.78886 7.26826 7.52851 7.52861C7.26816 7.78895 7.26816 8.21106 7.52851 8.47142L8.47132 7.52861ZM15.5285 16.4714C15.7888 16.7317 16.211 16.7317 16.4713 16.4714C16.7316 16.2111 16.7316 15.7889 16.4713 15.5286L15.5285 16.4714ZM8.47132 16.4714L16.4713 8.47142L15.5285 7.52861L7.52851 15.5286L8.47132 16.4714ZM7.52851 8.47142L15.5285 16.4714L16.4713 15.5286L8.47132 7.52861L7.52851 8.47142Z" fill="white"/>
</svg>
