<svg width="75" height="60" viewBox="0 0 75 60" fill="none" xmlns="http://www.w3.org/2000/svg">
<path d="M0 0H59C67.8366 0 75 7.16344 75 16V60H0V0Z" fill="white"/>
<mask id="mask0_1192_667" style="mask-type:luminance" maskUnits="userSpaceOnUse" x="26" y="18" width="24" height="24">
<path d="M50 18H26V42H50V18Z" fill="white"/>
</mask>
<g mask="url(#mask0_1192_667)">
<path d="M30.629 34.9332C30.1482 35.2049 29.9787 35.815 30.2505 36.2958C30.5222 36.7766 31.1323 36.9461 31.6131 36.6743L30.629 34.9332ZM44.3869 36.6743C44.8677 36.9461 45.4778 36.7766 45.7495 36.2958C46.0213 35.815 45.8518 35.2049 45.371 34.9332L44.3869 36.6743ZM40 28C40 29.1046 39.1046 30 38 30V32C40.2091 32 42 30.2091 42 28H40ZM38 30C36.8954 30 36 29.1046 36 28H34C34 30.2091 35.7909 32 38 32V30ZM36 28C36 26.8954 36.8954 26 38 26V24C35.7909 24 34 25.7909 34 28H36ZM38 26C39.1046 26 40 26.8954 40 28H42C42 25.7909 40.2091 24 38 24V26ZM38 33C35.3229 33 32.8068 33.7022 30.629 34.9332L31.6131 36.6743C33.4985 35.6086 35.6767 35 38 35V33ZM45.371 34.9332C43.1932 33.7022 40.6771 33 38 33V35C40.3233 35 42.5015 35.6086 44.3869 36.6743L45.371 34.9332ZM46 30C46 34.4183 42.4183 38 38 38V40C43.5228 40 48 35.5228 48 30H46ZM38 38C33.5817 38 30 34.4183 30 30H28C28 35.5228 32.4771 40 38 40V38ZM30 30C30 25.5817 33.5817 22 38 22V20C32.4771 20 28 24.4771 28 30H30ZM38 22C42.4183 22 46 25.5817 46 30H48C48 24.4771 43.5228 20 38 20V22Z" fill="#DCDFE7"/>
</g>
</svg>
