<svg width="24" height="24" viewBox="0 0 24 24" fill="none" xmlns="http://www.w3.org/2000/svg">
<mask id="mask0_1192_572" style="mask-type:luminance" maskUnits="userSpaceOnUse" x="0" y="0" width="24" height="24">
<path d="M24 0H0V24H24V0Z" fill="white"/>
</mask>
<g mask="url(#mask0_1192_572)">
<path d="M4.62897 16.9332C4.14817 17.2049 3.97871 17.815 4.25047 18.2958C4.52223 18.7766 5.13231 18.9461 5.61311 18.6743L4.62897 16.9332ZM18.3869 18.6743C18.8677 18.9461 19.4778 18.7766 19.7495 18.2958C20.0213 17.815 19.8518 17.2049 19.371 16.9332L18.3869 18.6743ZM14 10C14 11.1046 13.1046 12 12 12V14C14.2091 14 16 12.2091 16 10H14ZM12 12C10.8954 12 10 11.1046 10 10H8C8 12.2091 9.79086 14 12 14V12ZM10 10C10 8.89543 10.8954 8 12 8V6C9.79086 6 8 7.79086 8 10H10ZM12 8C13.1046 8 14 8.89543 14 10H16C16 7.79086 14.2091 6 12 6V8ZM12 15C9.3229 15 6.80679 15.7022 4.62897 16.9332L5.61311 18.6743C7.49854 17.6086 9.67669 17 12 17V15ZM19.371 16.9332C17.1932 15.7022 14.6771 15 12 15V17C14.3233 17 16.5015 17.6086 18.3869 18.6743L19.371 16.9332ZM20 12C20 16.4183 16.4183 20 12 20V22C17.5228 22 22 17.5228 22 12H20ZM12 20C7.58172 20 4 16.4183 4 12H2C2 17.5228 6.47715 22 12 22V20ZM4 12C4 7.58172 7.58172 4 12 4V2C6.47715 2 2 6.47715 2 12H4ZM12 4C16.4183 4 20 7.58172 20 12H22C22 6.47715 17.5228 2 12 2V4Z" fill="#DCDFE7"/>
</g>
</svg>
