<svg width="100" height="100" viewBox="0 0 100 100" fill="none" xmlns="http://www.w3.org/2000/svg">
<g clip-path="url(#clip0_316_153)">
<path d="M100 50C100 63.2608 94.7322 75.9785 85.3553 85.3553C75.9785 94.7322 63.2608 100 50 100C36.7392 100 24.0215 94.7322 14.6447 85.3553C5.26784 75.9785 0 63.2608 0 50C0 36.7392 5.26784 24.0215 14.6447 14.6447C24.0215 5.26784 36.7392 0 50 0C63.2608 0 75.9785 5.26784 85.3553 14.6447C94.7322 24.0215 100 36.7392 100 50ZM53.125 28.125C53.125 27.2962 52.7958 26.5013 52.2097 25.9153C51.6237 25.3292 50.8288 25 50 25C49.1712 25 48.3763 25.3292 47.7903 25.9153C47.2042 26.5013 46.875 27.2962 46.875 28.125V46.875H28.125C27.2962 46.875 26.5013 47.2042 25.9153 47.7903C25.3292 48.3763 25 49.1712 25 50C25 50.8288 25.3292 51.6237 25.9153 52.2097C26.5013 52.7958 27.2962 53.125 28.125 53.125H46.875V71.875C46.875 72.7038 47.2042 73.4987 47.7903 74.0847C48.3763 74.6708 49.1712 75 50 75C50.8288 75 51.6237 74.6708 52.2097 74.0847C52.7958 73.4987 53.125 72.7038 53.125 71.875V53.125H71.875C72.7038 53.125 73.4987 52.7958 74.0847 52.2097C74.6708 51.6237 75 50.8288 75 50C75 49.1712 74.6708 48.3763 74.0847 47.7903C73.4987 47.2042 72.7038 46.875 71.875 46.875H53.125V28.125Z" fill="black"/>
</g>
<defs>
<clipPath id="clip0_316_153">
<rect width="100" height="100" fill="white"/>
</clipPath>
</defs>
</svg>
