<svg width="76" height="76" viewBox="0 0 76 76" fill="none" xmlns="http://www.w3.org/2000/svg">
<path d="M1.41254 5.8375C1.12199 5.54695 0.891515 5.20202 0.734271 4.8224C0.577027 4.44278 0.496094 4.0359 0.496094 3.625C0.496094 3.2141 0.577027 2.80723 0.734271 2.42761C0.891515 2.04799 1.12199 1.70305 1.41254 1.4125C1.70309 1.12195 2.04802 0.891477 2.42764 0.734233C2.80727 0.576988 3.21414 0.496056 3.62504 0.496056C4.03594 0.496056 4.44282 0.576988 4.82244 0.734233C5.20206 0.891477 5.54699 1.12195 5.83754 1.4125L38 33.5813L70.1625 1.4125C70.4531 1.12195 70.798 0.891477 71.1776 0.734233C71.5573 0.576988 71.9641 0.496056 72.375 0.496056C72.7859 0.496056 73.1928 0.576988 73.5724 0.734233C73.9521 0.891477 74.297 1.12195 74.5875 1.4125C74.8781 1.70305 75.1086 2.04799 75.2658 2.42761C75.4231 2.80723 75.504 3.2141 75.504 3.625C75.504 4.0359 75.4231 4.44278 75.2658 4.8224C75.1086 5.20202 74.8781 5.54695 74.5875 5.8375L42.4188 38L74.5875 70.1625C74.8781 70.453 75.1086 70.798 75.2658 71.1776C75.4231 71.5572 75.504 71.9641 75.504 72.375C75.504 72.7859 75.4231 73.1928 75.2658 73.5724C75.1086 73.952 74.8781 74.297 74.5875 74.5875C74.297 74.8781 73.9521 75.1085 73.5724 75.2658C73.1928 75.423 72.7859 75.5039 72.375 75.5039C71.9641 75.5039 71.5573 75.423 71.1776 75.2658C70.798 75.1085 70.4531 74.8781 70.1625 74.5875L38 42.4188L5.83754 74.5875C5.54699 74.8781 5.20206 75.1085 4.82244 75.2658C4.44282 75.423 4.03594 75.5039 3.62504 75.5039C3.21414 75.5039 2.80727 75.423 2.42764 75.2658C2.04802 75.1085 1.70309 74.8781 1.41254 74.5875C1.12199 74.297 0.891515 73.952 0.734271 73.5724C0.577027 73.1928 0.496094 72.7859 0.496094 72.375C0.496094 71.9641 0.577027 71.5572 0.734271 71.1776C0.891515 70.798 1.12199 70.453 1.41254 70.1625L33.5813 38L1.41254 5.8375Z" fill="black"/>
</svg>
