<svg width="27" height="27" viewBox="0 0 27 27" fill="none" xmlns="http://www.w3.org/2000/svg">
<mask id="mask0_1286_381" style="mask-type:luminance" maskUnits="userSpaceOnUse" x="0" y="3" width="24" height="24">
<path d="M24 3H0V27H24V3Z" fill="white"/>
</mask>
<g mask="url(#mask0_1286_381)">
<path d="M4.62897 19.9332C4.14817 20.2049 3.97871 20.815 4.25047 21.2958C4.52223 21.7766 5.13231 21.9461 5.61311 21.6743L4.62897 19.9332ZM18.3869 21.6743C18.8677 21.9461 19.4778 21.7766 19.7495 21.2958C20.0213 20.815 19.8518 20.2049 19.371 19.9332L18.3869 21.6743ZM14 13C14 14.1046 13.1046 15 12 15V17C14.2091 17 16 15.2091 16 13H14ZM12 15C10.8954 15 10 14.1046 10 13H8C8 15.2091 9.79086 17 12 17V15ZM10 13C10 11.8954 10.8954 11 12 11V9C9.79086 9 8 10.7909 8 13H10ZM12 11C13.1046 11 14 11.8954 14 13H16C16 10.7909 14.2091 9 12 9V11ZM12 18C9.3229 18 6.80679 18.7022 4.62897 19.9332L5.61311 21.6743C7.49854 20.6086 9.67669 20 12 20V18ZM19.371 19.9332C17.1932 18.7022 14.6771 18 12 18V20C14.3233 20 16.5015 20.6086 18.3869 21.6743L19.371 19.9332ZM20 15C20 19.4183 16.4183 23 12 23V25C17.5228 25 22 20.5228 22 15H20ZM12 23C7.58172 23 4 19.4183 4 15H2C2 20.5228 6.47715 25 12 25V23ZM4 15C4 10.5817 7.58172 7 12 7V5C6.47715 5 2 9.47715 2 15H4ZM12 7C16.4183 7 20 10.5817 20 15H22C22 9.47715 17.5228 5 12 5V7Z" fill="#131417"/>
</g>
<circle cx="24" cy="3" r="3" fill="#12D6E3"/>
</svg>
