<svg width="160" height="160" viewBox="0 0 160 160" fill="none" xmlns="http://www.w3.org/2000/svg">
<path d="M103.494 24C97.6807 24 92.2899 25.9302 87.9081 29.1933C83.1834 32.7113 76.8166 32.7113 72.0934 29.1933C67.7116 25.9302 62.3208 24 56.5079 24C41.9283 24 30 36.1449 30 50.989V94.7102C30 108.069 40.7352 119 53.8566 119H106.143C119.265 119 130 108.069 130 94.7102V50.989C130.002 36.1449 118.073 24 103.494 24Z" fill="#12D6E3"/>
<path d="M67.5 67.75C70.2614 67.75 72.5 65.5114 72.5 62.75C72.5 59.9885 70.2614 57.75 67.5 57.75C64.7386 57.75 62.5 59.9885 62.5 62.75C62.5 65.5114 64.7386 67.75 67.5 67.75Z" fill="#191D22"/>
<path d="M92.9167 67.75C95.6781 67.75 97.9167 65.5114 97.9167 62.75C97.9167 59.9885 95.6781 57.75 92.9167 57.75C90.1552 57.75 87.9167 59.9885 87.9167 62.75C87.9167 65.5114 90.1552 67.75 92.9167 67.75Z" fill="#191D22"/>
<circle cx="102.5" cy="75.6666" r="8.33333" fill="#FFF493"/>
<circle cx="57.5" cy="75.6666" r="8.33333" fill="#FFF493"/>
<path d="M101.667 76.7075C98.8263 85.8744 90.1997 92.5408 80 92.5408C69.8003 92.5408 61.1752 85.8759 58.3333 76.709" stroke="#191D22" stroke-width="6.66667" stroke-miterlimit="10" stroke-linecap="round"/>
<path fill-rule="evenodd" clip-rule="evenodd" d="M60.7068 111.083C64.7788 111.083 68.0799 114.384 68.0799 118.456V124.412C71.7153 124.866 74.5312 127.97 74.5312 131.728C74.5312 134.17 72.5493 136.152 70.1074 136.152H61.2596C61.1985 136.152 61.1381 136.149 61.0786 136.143C60.9554 136.149 60.8315 136.152 60.7068 136.152C56.6347 136.152 53.3337 132.851 53.3337 128.779V118.456C53.3337 114.384 56.6347 111.083 60.7068 111.083Z" fill="#12D6E3"/>
<path d="M100.631 118.456C100.631 114.384 97.3303 111.083 93.2582 111.083C89.1861 111.083 85.8851 114.384 85.8851 118.456V128.779C85.8851 132.851 89.1861 136.152 93.2582 136.152C97.3303 136.152 100.631 132.851 100.631 128.779V118.456Z" fill="#12D6E3"/>
<path d="M93.8111 124.355H99.7095C103.78 124.355 107.083 127.658 107.083 131.728C107.083 134.17 105.101 136.152 102.659 136.152H93.8111C92.8349 136.152 92.0415 135.359 92.0415 134.382V126.124C92.0415 125.148 92.8349 124.355 93.8111 124.355Z" fill="#12D6E3"/>
</svg>
