<svg width="200" height="200" viewBox="0 0 200 200" fill="none" xmlns="http://www.w3.org/2000/svg">
<rect width="200" height="200" rx="45" fill="#191D22"/>
<path d="M128.192 35C121.217 35 114.748 37.3162 109.49 41.232C103.82 45.4536 96.1799 45.4536 90.5121 41.232C85.254 37.3162 78.785 35 71.8095 35C54.314 35 40 49.5739 40 67.3869V119.852C40 135.883 52.8822 149 68.628 149H131.372C147.118 149 160 135.883 160 119.852V67.3869C160.002 49.5739 145.688 35 128.192 35Z" fill="#25F2FF"/>
<path d="M85 87.5C88.3137 87.5 91 84.8137 91 81.5C91 78.1863 88.3137 75.5 85 75.5C81.6863 75.5 79 78.1863 79 81.5C79 84.8137 81.6863 87.5 85 87.5Z" fill="#191D22"/>
<path d="M115.5 87.5C118.814 87.5 121.5 84.8137 121.5 81.5C121.5 78.1863 118.814 75.5 115.5 75.5C112.186 75.5 109.5 78.1863 109.5 81.5C109.5 84.8137 112.186 87.5 115.5 87.5Z" fill="#191D22"/>
<circle cx="127" cy="97" r="10" fill="#FFF493"/>
<circle cx="73" cy="97" r="10" fill="#FFF493"/>
<path d="M126 98.249C122.592 109.249 112.24 117.249 100 117.249C87.7604 117.249 77.4103 109.251 74 98.2508" stroke="#191D22" stroke-width="8" stroke-miterlimit="10" stroke-linecap="round"/>
<path fill-rule="evenodd" clip-rule="evenodd" d="M76.8477 139.5C81.7342 139.5 85.6955 143.461 85.6955 148.348V155.494C90.058 156.039 93.4371 159.764 93.4371 164.274C93.4371 167.204 91.0588 169.582 88.1284 169.582H77.5112C77.4378 169.582 77.3653 169.579 77.2938 169.571C77.146 169.579 76.9973 169.582 76.8477 169.582C71.9613 169.582 68 165.621 68 160.735V148.348C68 143.461 71.9613 139.5 76.8477 139.5Z" fill="#25F2FF"/>
<path d="M124.758 148.348C124.758 143.461 120.797 139.5 115.91 139.5C111.024 139.5 107.062 143.461 107.062 148.348V160.735C107.062 165.621 111.024 169.582 115.91 169.582C120.797 169.582 124.758 165.621 124.758 160.735V148.348Z" fill="#25F2FF"/>
<path d="M116.574 155.426H123.652C128.536 155.426 132.5 159.39 132.5 164.274C132.5 167.204 130.121 169.582 127.191 169.582H116.574C115.402 169.582 114.45 168.63 114.45 167.459V157.549C114.45 156.378 115.402 155.426 116.574 155.426Z" fill="#25F2FF"/>
</svg>
