<svg width="24" height="24" viewBox="0 0 24 24" fill="none" xmlns="http://www.w3.org/2000/svg">
<rect width="24" height="24" rx="8" fill="#12D6E3"/>
<path d="M12 8.66667C11.6333 8.66667 11.3194 8.53611 11.0583 8.275C10.7972 8.01389 10.6666 7.7 10.6666 7.33333C10.6666 6.96667 10.7972 6.65278 11.0583 6.39167C11.3194 6.13056 11.6333 6 12 6C12.3666 6 12.6805 6.13056 12.9416 6.39167C13.2027 6.65278 13.3333 6.96667 13.3333 7.33333C13.3333 7.7 13.2027 8.01389 12.9416 8.275C12.6805 8.53611 12.3666 8.66667 12 8.66667ZM12 18C11.7222 18 11.4861 17.9028 11.2916 17.7083C11.0972 17.5139 11 17.2778 11 17V11C11 10.7222 11.0972 10.4861 11.2916 10.2917C11.4861 10.0972 11.7222 10 12 10C12.2777 10 12.5138 10.0972 12.7083 10.2917C12.9027 10.4861 13 10.7222 13 11V17C13 17.2778 12.9027 17.5139 12.7083 17.7083C12.5138 17.9028 12.2777 18 12 18Z" fill="white"/>
</svg>
