<svg width="20" height="20" viewBox="0 0 20 20" fill="none" xmlns="http://www.w3.org/2000/svg">
<circle cx="10" cy="10" r="10" fill="#3F4350"/>
<mask id="mask0_1270_1309" style="mask-type:alpha" maskUnits="userSpaceOnUse" x="1" y="1" width="18" height="18">
<rect x="1" y="1" width="18" height="18" fill="#D9D9D9"/>
</mask>
<g mask="url(#mask0_1270_1309)">
<path d="M5.5 10.75C5.2875 10.75 5.10938 10.6781 4.96562 10.5344C4.82187 10.3906 4.75 10.2125 4.75 10C4.75 9.7875 4.82187 9.60938 4.96562 9.46562C5.10938 9.32187 5.2875 9.25 5.5 9.25H14.5C14.7125 9.25 14.8906 9.32187 15.0344 9.46562C15.1781 9.60938 15.25 9.7875 15.25 10C15.25 10.2125 15.1781 10.3906 15.0344 10.5344C14.8906 10.6781 14.7125 10.75 14.5 10.75H5.5Z" fill="white"/>
</g>
</svg>
