<svg width="27" height="27" viewBox="0 0 27 27" fill="none" xmlns="http://www.w3.org/2000/svg">
<path d="M21 24L16.66 19.66M19 14C19 15.5823 18.5308 17.129 17.6518 18.4446C16.7727 19.7602 15.5233 20.7855 14.0615 21.391C12.5997 21.9965 10.9911 22.155 9.43928 21.8463C7.88743 21.5376 6.46197 20.7757 5.34315 19.6569C4.22433 18.538 3.4624 17.1126 3.15372 15.5607C2.84504 14.0089 3.00347 12.4003 3.60897 10.9385C4.21447 9.47672 5.23985 8.22729 6.55544 7.34824C7.87103 6.46919 9.41775 6 11 6C13.1217 6 15.1566 6.84285 16.6569 8.34315C18.1571 9.84344 19 11.8783 19 14Z" stroke="#131417" stroke-width="2" stroke-linecap="round" stroke-linejoin="round"/>
<circle cx="24" cy="3" r="3" fill="#12D6E3"/>
</svg>
