<svg width="88" height="88" viewBox="0 0 88 88" fill="none" xmlns="http://www.w3.org/2000/svg">
<g clip-path="url(#clip0_1278_555)">
<path d="M44 88C68.3005 88 88 68.3005 88 44C88 19.6995 68.3005 0 44 0C19.6995 0 0 19.6995 0 44C0 68.3005 19.6995 88 44 88Z" fill="#F8F9FB"/>
<path d="M55.1986 17.2C52.4277 17.2 49.8581 18.12 47.7695 19.6754C45.5174 21.3524 42.4825 21.3524 40.2312 19.6754C38.1425 18.12 35.5729 17.2 32.802 17.2C25.8525 17.2 20.1666 22.989 20.1666 30.0647V50.9051C20.1666 57.2728 25.2837 62.4833 31.5383 62.4833H56.4616C62.7162 62.4833 67.8333 57.2728 67.8333 50.9051V30.0647C67.834 22.989 62.1482 17.2 55.1986 17.2Z" fill="#12D6E3"/>
<path d="M38.0431 38.0541C39.3594 38.0541 40.4265 36.9871 40.4265 35.6708C40.4265 34.3545 39.3594 33.2875 38.0431 33.2875C36.7268 33.2875 35.6598 34.3545 35.6598 35.6708C35.6598 36.9871 36.7268 38.0541 38.0431 38.0541Z" fill="#191D22"/>
<path d="M50.158 38.0541C51.4743 38.0541 52.5413 36.9871 52.5413 35.6708C52.5413 34.3545 51.4743 33.2875 50.158 33.2875C48.8417 33.2875 47.7747 34.3545 47.7747 35.6708C47.7747 36.9871 48.8417 38.0541 50.158 38.0541Z" fill="#191D22"/>
<path d="M54.7258 45.7999C56.9196 45.7999 58.698 44.0215 58.698 41.8277C58.698 39.6339 56.9196 37.8555 54.7258 37.8555C52.532 37.8555 50.7535 39.6339 50.7535 41.8277C50.7535 44.0215 52.532 45.7999 54.7258 45.7999Z" fill="#FFF493"/>
<path d="M33.2742 45.7999C35.468 45.7999 37.2464 44.0215 37.2464 41.8277C37.2464 39.6339 35.468 37.8555 33.2742 37.8555C31.0804 37.8555 29.302 39.6339 29.302 41.8277C29.302 44.0215 31.0804 45.7999 33.2742 45.7999Z" fill="#FFF493"/>
<path d="M54.3273 42.3239C52.9734 46.6934 48.8614 49.8711 43.9995 49.8711C39.1377 49.8711 35.0264 46.6941 33.6718 42.3246" stroke="#191D22" stroke-width="3.17778" stroke-miterlimit="10" stroke-linecap="round"/>
<path fill-rule="evenodd" clip-rule="evenodd" d="M34.8046 58.7095C36.7456 58.7095 38.3191 60.283 38.3191 62.2241V65.0629C40.052 65.2793 41.3942 66.7589 41.3942 68.5502C41.3942 69.7142 40.4495 70.6589 39.2855 70.6589H35.0681C35.0389 70.6589 35.0101 70.6574 34.9818 70.6545C34.9231 70.6574 34.864 70.6589 34.8046 70.6589C32.8635 70.6589 31.29 69.0854 31.29 67.1444V62.2241C31.29 60.283 32.8635 58.7095 34.8046 58.7095Z" fill="#12D6E3"/>
<path d="M53.8345 62.2242C53.8345 60.2832 52.261 58.7097 50.3199 58.7097C48.3789 58.7097 46.8054 60.2832 46.8054 62.2242V67.1445C46.8054 69.0855 48.3789 70.659 50.3199 70.659C52.261 70.659 53.8345 69.0855 53.8345 67.1445V62.2242Z" fill="#12D6E3"/>
<path d="M50.5815 65.0359H53.3931C55.3331 65.0359 56.9077 66.6104 56.9077 68.5504C56.9077 69.7144 55.963 70.6591 54.7989 70.6591H50.5815C50.1162 70.6591 49.738 70.281 49.738 69.8156V65.8794C49.738 65.4141 50.1162 65.0359 50.5815 65.0359Z" fill="#12D6E3"/>
</g>
<defs>
<clipPath id="clip0_1278_555">
<rect width="88" height="88" fill="white"/>
</clipPath>
</defs>
</svg>
